<svg xmlns="http://www.w3.org/2000/svg" width="256" height="256"><path fill-opacity=".016" d="M0 128.004v128.004l128.25-.254 128.25-.254.254-127.75L257.008 0H0v128.004m.485.496c0 70.4.119 99.053.265 63.672.146-35.38.146-92.98 0-128C.604 29.153.485 58.1.485 128.5" fill="#1976D2" fill-rule="evenodd"/><path fill-opacity=".215" d="M105.555 1.554C75.463 7.213 47.631 23.683 28.756 47 16.376 62.295 8.754 77.5 3.192 98 .815 106.762.615 109.093.615 128s.2 21.238 2.577 30c5.562 20.5 13.184 35.705 25.564 51 19.32 23.867 47.354 40.193 78.244 45.567 13.953 2.427 38.062 1.557 51-1.841 37.502-9.851 65.653-31.945 83.937-65.879 4.735-8.788 10.509-25.66 12.095-35.347.631-3.85 1.557-7.781 2.058-8.736 1.065-2.032 1.253-31.441.194-30.381-.394.393-1.305-2.769-2.024-7.029-1.758-10.408-7.476-27.205-12.323-36.201C223.655 35.223 195.562 13.171 158 3.264c-8.001-2.11-12.261-2.561-27-2.855-12.608-.252-19.721.068-25.445 1.145m11.81 52.939c-24.317 5.289-44.37 22.424-53.317 45.56-4.099 10.599-5.413 19.378-4.772 31.873.876 17.061 6.398 31.228 17.344 44.498 17.075 20.701 46.387 30.78 72.683 24.992 9.322-2.052 23.619-8.984 31.126-15.092 4.974-4.046 16.571-17.577 16.571-19.333 0-.291-5.916-4.014-13.146-8.274l-13.145-7.746-1.524 2.264c-3.245 4.823-10.26 10.675-16.337 13.628-17.963 8.73-37.732 4.836-51.55-10.155-9.62-10.437-13.499-25.852-9.903-39.358 6.726-25.26 34.091-39.618 57.741-30.297 4.148 1.635 5.356 1.785 6.038.746C158.106 83.328 169 63.908 169 63.151c0-1.562-10.834-6.141-19.37-8.188-9.481-2.273-23.064-2.471-32.265-.47M.402 128c0 8.525.154 12.012.341 7.75.188-4.262.188-11.237 0-15.5-.187-4.263-.341-.775-.341 7.75" fill="#1976D2" fill-rule="evenodd"/><path fill-opacity=".376" d="M112.5 1.067C82.053 5.219 55.994 18.502 35.198 40.472 18.04 58.598 7.314 79.59 2.32 104.818c-2.324 11.74-2.324 34.624 0 46.364 9.233 46.638 41.793 83.797 86.099 98.26 25.088 8.189 54.074 8.189 79.162 0 44.036-14.375 77.263-52.124 85.885-97.575.844-4.449 1.534-9.587 1.534-11.418 0-1.832.45-3.609 1-3.949.55-.34 1-4.668 1-9.618 0-5.745-.362-8.777-1-8.382-.593.366-1-.786-1-2.831 0-1.896-.69-7.087-1.534-11.536-9.736-51.324-50.165-91.717-101.739-101.649C141.493.513 121.783-.199 112.5 1.067m9.815 51.941c-14.163 2.07-29.05 9.149-39.406 18.737-38.541 35.682-30.541 97.847 15.824 122.963 11.321 6.133 21.334 8.628 34.767 8.665 13.427.038 20.512-1.663 33.5-8.039 8.065-3.959 10.859-6.037 18.5-13.755 4.95-5 9.765-10.469 10.699-12.154l1.7-3.062-5.2-3.004a5227.542 5227.542 0 01-13.47-7.829l-8.271-4.824-5.361 5.924c-20.642 22.809-57.06 17.518-70.745-10.278-3.215-6.531-3.352-7.282-3.352-18.331 0-10.876.178-11.897 3.185-18.244 4.411-9.312 10.961-15.998 20.089-20.51 6.597-3.26 8.508-3.73 16.591-4.078 8.748-.378 13.374.515 21.654 4.176 1.155.511 3.405-2.586 9.371-12.898 9.112-15.746 9.369-14.472-3.89-19.318-12.662-4.627-23.992-5.924-36.185-4.141M.36 128c0 5.225.169 7.363.375 4.75.206-2.613.206-6.888 0-9.5S.36 122.775.36 128" fill="#1976D2" fill-rule="evenodd"/><path fill-opacity=".235" d="M122.962 103.25l-4.462 2.25-.5 22.287-.5 22.286 4.946 2.464c10.075 5.017 24.019 2.392 31.293-5.892 4.773-5.436 6.468-9.352 7.018-16.213.933-11.621-4.701-21.733-14.956-26.844-6.949-3.463-16.366-3.602-22.839-.338" fill="#1976D2" fill-rule="evenodd"/></svg>