<svg width="280" height="192" viewBox="0 0 280 192" fill="none" xmlns="http://www.w3.org/2000/svg">
<path d="M49.46 171.83V180.061H48.86V176.145H43.358V180.061H42.7579V171.83H43.358V175.617H48.86V171.83H49.46Z" fill="#323333"/>
<path d="M58.8834 179.214C58.2611 178.479 57.951 177.53 58.0193 176.57V171.83H58.6179V176.546C58.555 177.363 58.8031 178.173 59.3124 178.815C59.8677 179.3 60.58 179.567 61.3172 179.567C62.0545 179.567 62.7668 179.3 63.322 178.815C63.8308 178.173 64.0786 177.363 64.0159 176.546V171.83H64.6145V176.57C64.6829 177.531 64.3705 178.481 63.7448 179.214C63.0696 179.799 62.2066 180.12 61.3138 180.12C60.4209 180.12 59.558 179.799 58.8828 179.214H58.8834Z" fill="#323333"/>
<path d="M79.4083 176.511C79.7296 176.895 79.8952 177.385 79.8724 177.885C79.8882 178.196 79.8267 178.506 79.6933 178.787C79.56 179.069 79.359 179.313 79.1083 179.497C78.4301 179.919 77.6362 180.117 76.8393 180.062H73.1718V171.83H76.6042C77.3401 171.787 78.0708 171.979 78.6911 172.377C78.9353 172.554 79.1315 172.79 79.2619 173.062C79.3923 173.334 79.4528 173.635 79.438 173.936C79.4518 174.362 79.3216 174.781 79.0683 175.123C78.8114 175.451 78.4607 175.693 78.0628 175.817C78.5773 175.888 79.0521 176.133 79.4083 176.511V176.511ZM73.7711 172.348V175.629H76.5814C77.1661 175.665 77.7478 175.519 78.2455 175.21C78.4273 175.063 78.5738 174.876 78.6744 174.665C78.7751 174.453 78.8273 174.222 78.8273 173.988C78.8273 173.754 78.7751 173.523 78.6744 173.311C78.5738 173.1 78.4273 172.914 78.2455 172.766C77.7478 172.457 77.1661 172.311 76.5814 172.347L73.7711 172.348ZM78.6566 179.126C78.849 178.972 79.0043 178.776 79.111 178.554C79.2177 178.332 79.2732 178.088 79.2732 177.842C79.2732 177.595 79.2177 177.351 79.111 177.129C79.0043 176.907 78.849 176.711 78.6566 176.557C78.1035 176.247 77.4727 176.103 76.84 176.143H73.7711V179.541H76.84C77.474 179.584 78.1065 179.439 78.6593 179.126H78.6566Z" fill="#323333"/>
<path d="M96.5607 171.83H99.8173C100.608 171.815 101.39 171.997 102.093 172.36C102.736 172.693 103.272 173.2 103.64 173.823C104.003 174.472 104.193 175.203 104.193 175.946C104.193 176.689 104.003 177.419 103.64 178.068C103.272 178.691 102.736 179.198 102.093 179.532C101.39 179.894 100.608 180.076 99.8173 180.061H96.5607V171.83ZM99.7697 179.52C100.467 179.534 101.157 179.379 101.781 179.067C102.34 178.785 102.806 178.346 103.121 177.804C103.43 177.233 103.592 176.595 103.592 175.946C103.592 175.297 103.43 174.659 103.121 174.088C102.806 173.546 102.34 173.107 101.781 172.825C101.157 172.513 100.467 172.358 99.7697 172.372H97.1601V179.521L99.7697 179.52Z" fill="#323333"/>
<path d="M117.711 179.52V180.061H112.032V171.83H117.534V172.372H112.632V175.614H117.017V176.142H112.632V179.517L117.711 179.52Z" fill="#323333"/>
<path d="M134.442 171.83H135.042V180.061H134.442V171.83Z" fill="#323333"/>
<path d="M150.372 171.83V180.061H149.879L144.27 172.91V180.059H143.672V171.83H144.177L149.773 178.979V171.83H150.372Z" fill="#323333"/>
<path d="M160.308 179.573C159.67 179.221 159.14 178.703 158.772 178.075C158.406 177.425 158.214 176.692 158.214 175.946C158.214 175.201 158.406 174.468 158.772 173.818C159.14 173.189 159.67 172.671 160.308 172.319C160.977 171.95 161.731 171.761 162.495 171.772C163.258 171.762 164.011 171.949 164.681 172.314C165.319 172.662 165.85 173.179 166.215 173.807C166.581 174.46 166.773 175.196 166.773 175.945C166.773 176.694 166.581 177.43 166.215 178.083C165.85 178.711 165.32 179.228 164.681 179.576C164.007 179.932 163.256 180.118 162.494 180.117C161.731 180.116 160.981 179.928 160.308 179.57V179.573ZM164.364 179.096C164.913 178.791 165.368 178.342 165.681 177.797C165.997 177.231 166.162 176.594 166.162 175.946C166.162 175.298 165.997 174.66 165.681 174.095C165.368 173.55 164.913 173.101 164.364 172.795C163.789 172.486 163.145 172.325 162.492 172.325C161.839 172.325 161.196 172.486 160.62 172.795C160.069 173.099 159.611 173.549 159.297 174.095C158.981 174.66 158.815 175.298 158.815 175.946C158.815 176.594 158.981 177.231 159.297 177.797C159.611 178.343 160.069 178.792 160.62 179.096C161.196 179.405 161.839 179.566 162.492 179.566C163.145 179.566 163.789 179.405 164.364 179.096V179.096Z" fill="#323333"/>
<path d="M180.942 171.83L177.274 180.061H176.675L173.006 171.83H173.665L176.992 179.285L180.319 171.83H180.942Z" fill="#323333"/>
<path d="M192.875 177.745H188.101L187.055 180.061H186.408L190.195 171.83H190.794L194.581 180.061H193.934L192.875 177.745ZM192.652 177.239L190.49 172.49L188.338 177.239H192.652Z" fill="#323333"/>
<path d="M203.017 179.579C202.381 179.229 201.853 178.713 201.488 178.085C201.123 177.432 200.931 176.696 200.931 175.948C200.931 175.199 201.123 174.463 201.488 173.81C201.853 173.183 202.381 172.666 203.017 172.316C203.685 171.951 204.436 171.764 205.197 171.775C205.759 171.769 206.318 171.867 206.844 172.063C207.331 172.245 207.769 172.537 208.125 172.916L207.75 173.303C207.416 172.978 207.02 172.724 206.585 172.557C206.151 172.389 205.687 172.311 205.221 172.328C204.564 172.32 203.916 172.482 203.34 172.799C202.787 173.102 202.327 173.551 202.012 174.098C201.696 174.664 201.53 175.301 201.53 175.949C201.53 176.597 201.696 177.235 202.012 177.801C202.327 178.347 202.786 178.797 203.34 179.099C203.916 179.416 204.564 179.578 205.221 179.57C205.688 179.585 206.152 179.505 206.587 179.335C207.021 179.165 207.417 178.909 207.75 178.582L208.125 178.97C207.767 179.35 207.327 179.644 206.838 179.828C206.314 180.028 205.758 180.127 205.197 180.122C204.436 180.133 203.684 179.945 203.017 179.579ZM203.892 182.317L204.057 181.988C204.276 182.156 204.546 182.243 204.822 182.236C205.023 182.246 205.222 182.188 205.386 182.071C205.455 182.017 205.51 181.947 205.547 181.868C205.584 181.788 205.601 181.701 205.597 181.613C205.6 181.53 205.584 181.447 205.549 181.371C205.514 181.296 205.462 181.229 205.397 181.177C205.23 181.057 205.027 180.999 204.822 181.012H204.587L204.857 179.99H205.245L205.057 180.694C205.328 180.701 205.589 180.803 205.792 180.983C205.879 181.067 205.948 181.168 205.994 181.281C206.039 181.393 206.06 181.514 206.056 181.635C206.06 181.773 206.031 181.91 205.971 182.034C205.911 182.158 205.822 182.265 205.711 182.347C205.453 182.532 205.141 182.625 204.823 182.611C204.489 182.623 204.16 182.519 203.892 182.318V182.317Z" fill="#323333"/>
<path d="M220.763 177.745H215.99L214.943 180.061H214.297L218.083 171.83H218.681L222.468 180.061H221.821L220.763 177.745ZM220.54 177.239L218.377 172.49L216.226 177.239H220.54ZM218.701 170.943C218.546 170.847 218.402 170.735 218.272 170.608C218.166 170.512 218.054 170.424 217.937 170.344C217.851 170.287 217.751 170.256 217.648 170.256C217.565 170.253 217.482 170.271 217.406 170.307C217.331 170.343 217.265 170.396 217.214 170.463C217.096 170.625 217.03 170.82 217.026 171.021H216.638C216.639 170.714 216.737 170.415 216.92 170.168C217.002 170.063 217.107 169.979 217.228 169.923C217.349 169.867 217.481 169.84 217.614 169.845C217.777 169.842 217.938 169.885 218.078 169.968C218.233 170.064 218.376 170.177 218.507 170.303C218.612 170.399 218.724 170.487 218.841 170.568C218.927 170.625 219.027 170.655 219.13 170.656C219.213 170.659 219.296 170.642 219.371 170.607C219.446 170.572 219.512 170.521 219.564 170.456C219.682 170.3 219.748 170.111 219.752 169.916H220.141C220.14 170.218 220.039 170.512 219.853 170.75C219.771 170.853 219.665 170.935 219.546 170.99C219.426 171.045 219.295 171.072 219.163 171.068C219.001 171.07 218.84 171.027 218.701 170.943V170.943Z" fill="#323333"/>
<path d="M230.91 179.573C230.273 179.221 229.743 178.703 229.376 178.075C229.01 177.425 228.818 176.692 228.818 175.946C228.818 175.201 229.01 174.468 229.376 173.818C229.743 173.189 230.273 172.671 230.91 172.319C231.58 171.95 232.333 171.761 233.097 171.772C233.861 171.762 234.614 171.949 235.284 172.314C235.922 172.662 236.452 173.179 236.818 173.807C237.183 174.46 237.375 175.196 237.375 175.945C237.375 176.693 237.183 177.429 236.818 178.083C236.453 178.711 235.922 179.228 235.284 179.576C234.61 179.932 233.859 180.118 233.097 180.117C232.334 180.116 231.584 179.928 230.91 179.57V179.573ZM234.966 179.096C235.515 178.791 235.971 178.342 236.283 177.797C236.599 177.231 236.765 176.594 236.765 175.946C236.765 175.298 236.599 174.66 236.283 174.095C235.97 173.55 235.515 173.101 234.966 172.795C234.391 172.486 233.747 172.325 233.094 172.325C232.441 172.325 231.798 172.486 231.222 172.795C230.671 173.1 230.214 173.549 229.9 174.095C229.584 174.66 229.417 175.298 229.417 175.946C229.417 176.594 229.584 177.231 229.9 177.797C230.214 178.343 230.671 178.792 231.222 179.096C231.798 179.405 232.441 179.566 233.094 179.566C233.747 179.566 234.391 179.405 234.966 179.096V179.096Z" fill="#323333"/>
<path d="M7.33971e-06 148.975V132.446C-0.0255932 130.506 0.419555 128.588 1.29728 126.857C2.14206 125.201 3.4246 123.808 5.00552 122.83C6.73827 121.79 8.73253 121.266 10.7531 121.321C12.0644 121.343 13.3661 121.548 14.6207 121.93C16.1003 122.375 17.4532 123.164 18.5683 124.234C19.9107 125.588 20.8386 127.297 21.2428 129.161H21.2959C21.7327 127.292 22.6873 125.585 24.0504 124.234C25.1774 123.167 26.5382 122.378 28.0242 121.93C29.2786 121.548 30.58 121.343 31.891 121.321C33.9116 121.266 35.9058 121.79 37.6386 122.83C39.2163 123.804 40.4914 125.198 41.3207 126.857C42.1817 128.593 42.6173 130.509 42.5917 132.446V148.975H41.3207V132.446C41.3587 130.655 40.9309 128.884 40.0793 127.307C39.2838 125.86 38.1245 124.646 36.7159 123.785C35.2449 122.904 33.5559 122.454 31.8414 122.486C30.0994 122.459 28.3819 122.899 26.8678 123.761C25.3537 124.623 24.0983 125.875 23.2324 127.387C22.3563 128.928 21.9082 130.674 21.9345 132.446V148.975H20.6104V132.446C20.6353 130.671 20.1779 128.923 19.2869 127.387C18.4279 125.912 17.2057 124.68 15.7366 123.81C14.2113 122.916 12.4699 122.458 10.7021 122.486C9.02276 122.459 7.36849 122.895 5.92012 123.745C4.47175 124.596 3.28506 125.828 2.48969 127.307C1.65366 128.889 1.23446 130.658 1.27173 132.446V148.975H7.33971e-06Z" fill="#323333"/>
<path d="M61.8235 116.023C61.4634 116.005 61.1229 115.854 60.868 115.599C60.6131 115.344 60.462 115.004 60.4442 114.644C60.4409 114.459 60.4771 114.277 60.5502 114.108C60.6234 113.939 60.7319 113.787 60.8683 113.664C61.1216 113.411 61.4643 113.268 61.8221 113.266C62.0041 113.263 62.1848 113.297 62.3536 113.365C62.5223 113.433 62.6756 113.535 62.8043 113.663C62.933 113.792 63.0345 113.945 63.1027 114.114C63.1709 114.283 63.2045 114.464 63.2014 114.646C63.1997 115.003 63.0569 115.346 62.8042 115.599C62.6805 115.736 62.529 115.845 62.3598 115.918C62.1906 115.991 62.0077 116.027 61.8235 116.023V116.023ZM61.1338 148.975V121.957H62.4593V148.975H61.1338Z" fill="#323333"/>
<path d="M81.0015 148.974V133.134C80.9137 130.814 81.5135 128.519 82.7256 126.539C83.8129 124.844 85.3427 123.48 87.1497 122.592C88.8982 121.721 90.8251 121.268 92.7787 121.268C94.7322 121.268 96.6591 121.721 98.4076 122.592C100.203 123.486 101.722 124.85 102.804 126.539C104.017 128.519 104.616 130.814 104.528 133.134V148.974H103.203V133.346C103.279 131.239 102.756 129.154 101.693 127.334C100.748 125.784 99.3914 124.527 97.7738 123.704C96.2212 122.908 94.5021 122.491 92.7573 122.486C91.0124 122.482 89.2912 122.89 87.7346 123.679C86.1255 124.492 84.7765 125.74 83.8407 127.281C82.7739 129.119 82.2505 131.222 82.3311 133.346V148.974H81.0015Z" fill="#323333"/>
<path d="M136.319 149.664C134.656 149.663 133.005 149.367 131.445 148.789C129.845 148.199 128.377 147.299 127.126 146.141C125.795 144.895 124.747 143.377 124.055 141.69C123.258 139.713 122.871 137.596 122.915 135.465C122.829 132.769 123.489 130.102 124.822 127.757C126.008 125.74 127.72 124.082 129.775 122.963C131.766 121.878 133.998 121.314 136.265 121.321C137.959 121.313 139.636 121.656 141.192 122.327C142.721 122.982 144.121 123.906 145.324 125.055C146.503 126.169 147.442 127.512 148.083 129.002H148.241V110.301H149.567V135.887C149.662 138.562 148.992 141.209 147.636 143.517C146.439 145.478 144.725 147.073 142.681 148.125C140.714 149.139 138.533 149.667 136.319 149.664V149.664ZM136.372 148.446C138.359 148.443 140.315 147.951 142.067 147.015C143.922 146.027 145.463 144.54 146.517 142.723C147.653 140.495 148.243 138.029 148.238 135.528C148.233 133.028 147.634 130.564 146.49 128.34C145.423 126.51 143.875 125.008 142.014 123.995C140.231 123.034 138.237 122.533 136.212 122.539C134.195 122.54 132.213 123.07 130.464 124.075C128.611 125.133 127.067 126.658 125.988 128.499C124.773 130.615 124.168 133.026 124.24 135.465C124.15 137.976 124.765 140.463 126.014 142.644C127.106 144.482 128.681 145.984 130.569 146.988C132.355 147.943 134.348 148.443 136.372 148.445V148.446Z" fill="#323333"/>
<path d="M165.87 148.975V110.301H173.13V123.864C174.207 122.974 175.449 122.308 176.786 121.904C178.039 121.523 179.342 121.327 180.652 121.321C182.928 121.232 185.181 121.803 187.141 122.963C188.823 124.023 190.158 125.551 190.982 127.36C191.847 129.273 192.281 131.353 192.255 133.453V148.975H184.992V133.453C185.004 132.401 184.729 131.366 184.197 130.459C183.68 129.57 182.941 128.831 182.052 128.314C181.15 127.798 180.13 127.524 179.09 127.519C178.051 127.515 177.028 127.779 176.121 128.287C175.236 128.785 174.49 129.496 173.949 130.356C173.403 131.219 173.118 132.222 173.128 133.243V148.977L165.87 148.975Z" fill="#323333"/>
<path d="M221.865 149.61C219.397 149.678 216.953 149.112 214.766 147.968C212.874 146.956 211.304 145.433 210.237 143.571C209.189 141.713 208.65 139.612 208.674 137.479V121.957H215.933V137.479C215.921 138.531 216.196 139.565 216.728 140.472C217.245 141.361 217.984 142.1 218.872 142.617C219.784 143.138 220.816 143.412 221.866 143.412C222.916 143.412 223.948 143.138 224.859 142.617C225.748 142.1 226.487 141.361 227.005 140.472C227.536 139.565 227.811 138.531 227.799 137.479V121.957H235.058V137.479C235.081 139.612 234.542 141.713 233.495 143.571C232.433 145.427 230.873 146.95 228.992 147.968C226.797 149.119 224.342 149.684 221.865 149.61V149.61Z" fill="#323333"/>
<path d="M265.465 149.61C262.835 149.675 260.233 149.054 257.916 147.809C255.798 146.629 254.075 144.85 252.963 142.696C251.752 140.292 251.152 137.627 251.215 134.936V110.301H258.472V125.295H258.526C259.098 124.474 259.806 123.757 260.619 123.175C261.471 122.562 262.42 122.096 263.426 121.795C264.482 121.476 265.579 121.315 266.683 121.319C269.096 121.258 271.479 121.863 273.571 123.068C275.496 124.215 277.064 125.875 278.101 127.861C279.214 130.05 279.769 132.48 279.716 134.935C279.737 136.926 279.414 138.906 278.762 140.788C278.163 142.51 277.226 144.095 276.008 145.451C274.775 146.797 273.253 147.848 271.557 148.523C269.617 149.279 267.547 149.649 265.465 149.61V149.61ZM265.465 143.412C266.781 143.45 268.076 143.08 269.173 142.353C270.208 141.635 271.023 140.645 271.53 139.493C272.072 138.219 272.351 136.85 272.351 135.466C272.351 134.083 272.072 132.713 271.53 131.44C271.023 130.288 270.207 129.298 269.173 128.579C268.065 127.887 266.785 127.52 265.478 127.52C264.172 127.52 262.892 127.887 261.783 128.579C260.737 129.292 259.911 130.283 259.399 131.44C258.857 132.713 258.578 134.083 258.578 135.466C258.578 136.85 258.857 138.219 259.399 139.493C259.91 140.65 260.736 141.641 261.783 142.353C262.874 143.073 264.158 143.443 265.465 143.411V143.412Z" fill="#323333"/>
<path d="M68.4189 84.5146L60.3248 80.3194L92.6597 17.9278C93.9241 15.4881 95.8344 13.4428 98.1823 12.0151C100.53 10.5874 103.225 9.83237 105.973 9.83237C108.721 9.83237 111.416 10.5874 113.764 12.0151C116.112 13.4428 118.022 15.4881 119.286 17.9278L147.137 71.6687C147.625 72.6098 148.359 73.4015 149.26 73.9598C150.161 74.5182 151.196 74.8224 152.256 74.8404C153.316 74.8584 154.361 74.5894 155.281 74.062C156.2 73.5345 156.96 72.7682 157.48 71.8442L188.503 16.6486C189.825 14.2971 191.756 12.3455 194.093 10.9997C196.431 9.65384 199.089 8.96353 201.786 9.00148C204.483 9.03944 207.12 9.80426 209.418 11.2154C211.717 12.6265 213.593 14.6316 214.848 17.0194L241.321 67.0679L233.261 71.331L206.783 21.2739C206.292 20.3361 205.558 19.548 204.657 18.9929C203.756 18.4378 202.722 18.1362 201.663 18.1201C200.605 18.1039 199.562 18.3738 198.645 18.9012C197.727 19.4286 196.969 20.1939 196.45 21.1164L165.427 76.3129C164.125 78.6338 162.228 80.5657 159.931 81.9097C157.634 83.2538 155.02 83.9614 152.359 83.9598H152.102C149.398 83.9156 146.755 83.1398 144.456 81.7147C142.157 80.2896 140.286 78.2684 139.043 75.8658L111.193 22.1239C110.697 21.168 109.948 20.3666 109.028 19.8073C108.107 19.248 107.051 18.9522 105.974 18.9522C104.897 18.9522 103.841 19.248 102.92 19.8073C102 20.3666 101.251 21.168 100.755 22.1239L68.4189 84.5146Z" fill="#00B1AB"/>
<path d="M212.409 84.543L179.064 21.2674C178.573 20.3306 177.838 19.5437 176.936 18.9896C176.035 18.4356 175.001 18.135 173.944 18.1195C172.886 18.1041 171.844 18.3743 170.927 18.9018C170.01 19.4293 169.252 20.1944 168.734 21.1165L137.711 76.313C136.409 78.6339 134.512 80.5658 132.215 81.9098C129.918 83.2539 127.304 83.9615 124.643 83.9599H124.386C121.681 83.9157 119.039 83.1399 116.74 81.7148C114.44 80.2897 112.57 78.2685 111.327 75.8659L83.4741 22.125C82.9875 21.1618 82.2409 20.3542 81.3189 19.7935C80.3969 19.2328 79.3363 18.9414 78.2572 18.9524V18.9524C77.1778 18.9414 76.1169 19.2328 75.1945 19.7934C74.272 20.3541 73.5249 21.1617 73.0376 22.125L46.961 72.4405L38.8669 68.2463L64.9435 17.9307C66.2033 15.4872 68.1127 13.4385 70.4617 12.0101C72.8106 10.5818 75.5081 9.82902 78.2572 9.83476C81.0061 9.82916 83.7033 10.5819 86.052 12.0103C88.4006 13.4387 90.3097 15.4874 91.5691 17.9307L119.421 71.6716C119.902 72.6186 120.634 73.4154 121.537 73.9748C122.44 74.5343 123.48 74.835 124.542 74.8442H124.646C125.69 74.8518 126.717 74.5773 127.618 74.0496C128.518 73.5218 129.26 72.7605 129.763 71.8461L160.787 16.6506C162.108 14.299 164.04 12.3475 166.377 11.0017C168.715 9.65583 171.372 8.96548 174.069 9.00344C176.767 9.04139 179.403 9.80624 181.702 11.2173C184.001 12.6284 185.877 14.6335 187.131 17.0213L220.474 80.2931L212.409 84.543Z" fill="#7B4AC7"/>
<path d="M226.745 92.5199C223.401 92.5197 220.133 91.5281 217.353 89.6706C214.573 87.813 212.407 85.1728 211.128 82.084C209.848 78.9951 209.514 75.5963 210.166 72.3172C210.818 69.0382 212.429 66.0262 214.793 63.6622C217.157 61.2982 220.169 59.6884 223.448 59.0362C226.727 58.384 230.126 58.7188 233.215 59.9983C236.303 61.2778 238.943 63.4444 240.801 66.2243C242.658 69.0042 243.65 72.2724 243.65 75.6157C243.644 80.0974 241.861 84.394 238.692 87.563C235.523 90.732 231.226 92.5146 226.745 92.5199V92.5199ZM226.745 67.8291C225.204 67.8291 223.699 68.2858 222.418 69.1415C221.137 69.9972 220.139 71.2135 219.55 72.6365C218.96 74.0594 218.806 75.6253 219.107 77.1359C219.407 78.6465 220.149 80.0341 221.238 81.1232C222.327 82.2123 223.715 82.954 225.225 83.2545C226.736 83.555 228.302 83.4007 229.725 82.8113C231.148 82.2219 232.364 81.2238 233.22 79.9431C234.075 78.6625 234.532 77.1568 234.532 75.6166C234.53 73.5518 233.709 71.572 232.249 70.1119C230.789 68.6517 228.809 67.8304 226.745 67.8282V67.8291Z" fill="#00B1AB"/>
<path d="M53.9023 92.6578C50.5591 92.6574 47.291 91.6657 44.5114 89.808C41.7317 87.9503 39.5654 85.3101 38.2863 82.2213C37.0071 79.1324 36.6726 75.7336 37.325 72.4546C37.9775 69.1756 39.5877 66.1638 41.9518 63.7999C44.316 61.4359 47.3281 59.8261 50.6071 59.174C53.8862 58.5219 57.2849 58.8568 60.3737 60.1363C63.4624 61.4158 66.1023 63.5825 67.9597 66.3623C69.8171 69.1421 70.8085 72.4103 70.8085 75.7536C70.8035 80.2357 69.0207 84.5327 65.8512 87.7018C62.6817 90.871 58.3844 92.6533 53.9023 92.6578V92.6578ZM53.9023 67.968C52.3623 67.9682 50.857 68.425 49.5766 69.2807C48.2963 70.1364 47.2984 71.3526 46.7092 72.7754C46.12 74.1982 45.9659 75.7638 46.2665 77.2742C46.567 78.7846 47.3087 80.1719 48.3977 81.2608C49.4867 82.3497 50.8741 83.0912 52.3846 83.3916C53.895 83.6919 55.4605 83.5377 56.8833 82.9483C58.3061 82.3589 59.5221 81.3609 60.3777 80.0804C61.2332 78.7999 61.6898 77.2945 61.6898 75.7545C61.6876 73.6899 60.8664 71.7106 59.4064 70.2508C57.9464 68.791 55.9669 67.97 53.9023 67.968Z" fill="#7B4AC7"/>
</svg>
